<svg xmlns="http://www.w3.org/2000/svg" width="1080" height="1080" viewBox="0 0 1080 1080"><path d="M393.4 546.7v-7.5h40.7V112h-61.3c-18.2 0-25.7 6.2-32 16.3l-55.8 87h-7.5l11.9-110.8H654l11.9 110.8h-7.5l-55.7-87c-6.3-10.1-13.8-16.3-32-16.3h-61.4v427.2H550v7.5z"/><path d="M844.7 519.5h-53.3V512h162.9v7.5h-34.5v164.7c-37.6 7.6-95.2 17-135.9 17-147.9 0-193.6-121.6-193.6-226.2 0-127.8 58.3-231.2 184.2-231.2 39.5 0 80.8 9.4 110.9 19.5l11.2 108.3h-7.5l-64.5-100.2c-10.6-16.3-17.5-20.7-49.5-20.7-82.1 0-89.6 63.9-94.6 131.6a1277.1 1277.1 0 0 0 0 183.5c5.7 77.1 23.2 128.5 103.4 128.5 20.7 0 45.1-2.5 60.8-5.7zM97.1 688.7a207.7 207.7 0 0 0 37.7 34.3c13.7 9.8 28.7 17.7 44.3 22.4a102.7 102.7 0 0 0 47.5 3.6 87 87 0 0 0 11.5-2.5 105.8 105.8 0 0 0 11.2-3.9 116.6 116.6 0 0 0 10.8-5l11.1-6.1a290.9 290.9 0 0 1 49.7-21.1 282.8 282.8 0 0 1 53.1-11.7 293 293 0 0 1 54.6-1.4 348.7 348.7 0 0 1 53.9 8 397 397 0 0 1 101.1 38.8c31.5 17.4 60.3 38.9 86.8 62.6a643.8 643.8 0 0 1 72.6 77c11 13.8 21.3 28 31.1 42.5 4.9 7.3 9.6 14.7 14.1 22.3s8.8 15.1 12.7 23l-3.2 2.2c-23.7-25.3-48.2-49.6-73.2-72.9s-50.7-45.5-77.5-66a796 796 0 0 0-83-56.2c-28.6-16.8-58.4-31.4-90-40.8a266.4 266.4 0 0 0-97.2-10.8c-32.7 2.4-64.9 11.5-95.1 25.5l-5.7 2.7-3.1 1.4-3.2 1.5a122.3 122.3 0 0 1-13.2 4.8 122.7 122.7 0 0 1-27.7 5.4 120.2 120.2 0 0 1-54.6-9.1c-17-6.9-32-17.1-45.4-28.7a220 220 0 0 1-18.7-18.7A203.7 203.7 0 0 1 94 690.9z"/><path d="M742.2 971.6h.1c-.1-1.7 0 2.4.1 1.9h-1.9l-2.2.2-4.3.2-8.6.3-17.3.6c-11.5.1-23.1.1-34.6 0q-34.7-.4-69.3-3.1c-23-1.8-46-4.3-69-7.8s-45.7-8-68.3-13.7-45.1-12.3-67-20.9-43.1-19.6-62.4-33.7-36.6-31.3-49.6-51.5-21.2-43.3-22.9-66.6l1.8-.3a183.2 183.2 0 0 0 32 59c14.1 17.1 31.2 31.4 49.7 43.7a426.5 426.5 0 0 0 58.8 31.9 465.9 465.9 0 0 0 63.6 23.7c21.8 6.3 44.1 11.6 66.5 15.9s45.1 8 67.8 10.8 45.6 5.1 68.5 6.7c11.5.8 22.9 1.4 34.4 1.8l17.3.6h17c.2-.4.3 3.6 0 1.9h-.1zM204 664.6c1.8 2.6 3.9 5.1 5.9 7.5s4.2 4.7 6.5 6.9a118.1 118.1 0 0 0 14.1 12.4 110.6 110.6 0 0 0 15.5 10 116.2 116.2 0 0 0 16.6 7.3 73.6 73.6 0 0 0 17.4 3.5c5.8.8 11.6 1.2 17.5 2.1 2.9.3 5.9.8 8.9 1l4.5.5 4.6.5 2.4.2 2.3.2 4.9.5a93.6 93.6 0 0 1 10 1.2l.4 1.9a46.1 46.1 0 0 1-4.3 2.9 48.3 48.3 0 0 1-4.5 2.6l-4.7 2.1a46.8 46.8 0 0 1-4.8 1.8l-5 1.4a41.9 41.9 0 0 1-5.1 1.1 45 45 0 0 1-5.1.8l-5.2.4a58.7 58.7 0 0 1-20.8-2.7 131.4 131.4 0 0 1-19.4-7.9 108.7 108.7 0 0 1-32.5-24.3 123.9 123.9 0 0 1-12.4-15.7 111.1 111.1 0 0 1-9.4-17.3z"/><path d="M150.8 685.7a93.2 93.2 0 0 0 6.5 7.6c2.4 2.4 4.7 4.8 7.2 7a128 128 0 0 0 15.7 12 121.2 121.2 0 0 0 35.1 16.1 98.4 98.4 0 0 0 18.7 2.9l4.7.3 4.7.4 4.7.4 4.7.5 4.8.5 4.8.4c3.2.4 6.4.5 9.8.8s6.6.5 10 .9a102 102 0 0 1 10.6 1.3l.4 1.8a44.3 44.3 0 0 1-4.6 2.9 32 32 0 0 1-4.8 2.6 86.8 86.8 0 0 1-10 4 89.5 89.5 0 0 1-10.5 2.6l-5.3.9-5.5.4-2.7.2h-2.7l-5.5-.3a101.8 101.8 0 0 1-10.8-1.9 147.7 147.7 0 0 1-20.6-7.2 123.4 123.4 0 0 1-19.1-9.9 134.2 134.2 0 0 1-16.8-13 122.7 122.7 0 0 1-14.2-15.6 97.2 97.2 0 0 1-11-17.7zm102-41a142.1 142.1 0 0 0 24.7 27.6 113.7 113.7 0 0 0 14.6 10.7 89.8 89.8 0 0 0 15.7 8.1 76.2 76.2 0 0 0 16.7 4.4c5.7.8 11.2 1.6 16.8 2.6l4.3.6 2.2.3 2.1.2 4.4.6 4.5.4c3.1.5 6.1.5 9.3.9s6.4.5 9.8 1.2l.6 1.8q-2.1 1.6-4.2 3a50.6 50.6 0 0 1-4.4 2.6 58.4 58.4 0 0 1-9.4 3.9 45.8 45.8 0 0 1-4.9 1.5l-5.1 1a87.7 87.7 0 0 1-10.3 1.1 60 60 0 0 1-20.5-3.4 146 146 0 0 1-18.7-8.9 114.2 114.2 0 0 1-16.5-11.7 131.9 131.9 0 0 1-13.8-14.2 119.2 119.2 0 0 1-19.6-33.5z"/><path d="M295.8 628.8a193.6 193.6 0 0 0 11.2 18.5 202.2 202.2 0 0 0 13 17.1 163.3 163.3 0 0 0 14.6 15.3 130 130 0 0 0 16.3 12.7 76.1 76.1 0 0 0 18.1 8.4c6.2 2.1 12.3 3.7 18.6 5.2 12.6 3.2 26 3.4 41.4 4l.6 1.8a59.4 59.4 0 0 1-20.8 10.6l-2.9.9-2.9.6-6 .9c-2 .2-4 .2-6.1.3a41.9 41.9 0 0 1-6.1-.2 59.1 59.1 0 0 1-23.3-6.7 118.3 118.3 0 0 1-19.7-13.5 132.1 132.1 0 0 1-16.4-16.2 183 183 0 0 1-13.2-18.5 186.6 186.6 0 0 1-10.4-19.8 153 153 0 0 1-7.8-20.8zm140.3 8.1a251.7 251.7 0 0 0 7 32.6c1.5 5.2 3.3 10.4 5.3 15.4a92.9 92.9 0 0 0 6.8 14.2 47.5 47.5 0 0 0 9.4 11.3 89.6 89.6 0 0 0 10.1 8.1 48.4 48.4 0 0 0 12.1 5.7l3.7 1 3.9.8 2.1.5 2.1.3 4.4.9.5 1.8a20 20 0 0 1-3.7 2.8l-2 1.4-2.1 1c-1.5.6-2.9 1.3-4.5 1.8s-3.1.8-4.7 1.2a38.5 38.5 0 0 1-20.3-2.1 35.4 35.4 0 0 1-16-12.9 87.5 87.5 0 0 1-8.7-16.9 110.9 110.9 0 0 1-5.3-17.3c-1.1-5.8-1.9-11.5-2.5-17.3a170.8 170.8 0 0 1 .5-34.3z"/><path d="M475.9 649.2c.6 7.5 1.2 15 2.1 22.3.5 3.7 1 7.4 1.6 10.9s1.1 7.2 1.9 10.6a55.4 55.4 0 0 0 3.4 9.7 56.3 56.3 0 0 1 2.9 8.4 51.4 51.4 0 0 0 2.1 6.9c.9 2.2 3.1 4.4 7.2 6.4l.4 1.9a20.9 20.9 0 0 1-2.8 2.2 18.3 18.3 0 0 1-3.5 1.4 24.3 24.3 0 0 1-4 .5 19.8 19.8 0 0 1-4.1-.8 18.7 18.7 0 0 1-7.3-4.1 25.3 25.3 0 0 1-5.1-5.8 28.7 28.7 0 0 1-4.3-12.7c-.3-4.3-.1-8.4-.1-12.4a115.1 115.1 0 0 1 .6-11.8c.4-3.9.9-7.7 1.6-11.5a170.3 170.3 0 0 1 5.5-22.4z"/><path d="M398.1 633.1a237.5 237.5 0 0 0 10.1 31.6 150.3 150.3 0 0 0 6.7 14.7 84.7 84.7 0 0 0 8.2 13.3 45.2 45.2 0 0 0 10.3 10.2 85.9 85.9 0 0 0 10.8 6.7 49.1 49.1 0 0 0 12.6 4.1l3.7.5 4 .3c2.8.4 5.6.2 8.7.6l.8 1.8c-1.1 1.1-2.2 2.2-3.4 3.2l-1.8 1.6-1.9 1.3-4.1 2.3a36.6 36.6 0 0 1-4.6 1.8 36.2 36.2 0 0 1-20.4.5 35.5 35.5 0 0 1-17.4-10.9 90.3 90.3 0 0 1-10.4-15.9 111.5 111.5 0 0 1-6.8-16.6 143.8 143.8 0 0 1-4.2-16.9 169.7 169.7 0 0 1-2.8-34z"/><path d="M359.4 629.3a209.4 209.4 0 0 0 10.6 32.8 123.9 123.9 0 0 0 7.3 15.1 97.9 97.9 0 0 0 9 13.4 42.5 42.5 0 0 0 11.5 9.5 89.1 89.1 0 0 0 12.1 5.8 53 53 0 0 0 14.1 3.3c5.3.8 10.9.7 17.3 1.2l.7 1.8a40.7 40.7 0 0 1-16.2 10.4 40.2 40.2 0 0 1-20.5 1.9 37.2 37.2 0 0 1-19-9.4 67.5 67.5 0 0 1-12.4-15.7 93.2 93.2 0 0 1-8.1-16.9 140.2 140.2 0 0 1-5-17.6 163.2 163.2 0 0 1-3.3-35.4zm295.2 88.8c-2.9 8-7.9 14.8-13.9 21a23.9 23.9 0 0 1-2.2 2.3l-2.5 2.1-2.4 2.1-2.6 1.9a89.6 89.6 0 0 1-11.2 6.7c-3.9 1.8-7.7 4.2-11.8 5.7a24 24 0 0 1-6.3 1.9 46.2 46.2 0 0 1-6.5.7 35.5 35.5 0 0 1-6.5-.4c-2.2-.3-4.3-.7-6.5-1.2a43 43 0 0 1-12.3-5.8v-1.9a55.2 55.2 0 0 1 11.7-5.8c1.8-.8 3.7-1.5 5.5-2.1s3.6-1.1 5.4-1.7a56.3 56.3 0 0 1 10.7-2.1l2.7-.2h1.4l1.4-.3a51.2 51.2 0 0 0 5.4-1 100 100 0 0 0 10.5-3.6l2.6-1 2.6-1.2 2.5-1.2 2.4-1.4a69.2 69.2 0 0 0 18.1-14.4zm-58.9-27.9a63.4 63.4 0 0 1-7.2 21.2 61.8 61.8 0 0 1-14.9 18 83.5 83.5 0 0 1-10 7.4 26.8 26.8 0 0 1-11.8 3.7 35.8 35.8 0 0 1-12.2-1.4 27.3 27.3 0 0 1-10.9-6.2l.2-1.9a49.5 49.5 0 0 1 5.3-3c1.7-1 3.4-1.6 4.9-2.4 3.2-1.4 6.1-2.8 8.9-3.8a31.2 31.2 0 0 1 8.4-2.5 40.2 40.2 0 0 0 8.8-2.6 56.3 56.3 0 0 0 8.1-4.9 62.5 62.5 0 0 0 7.6-6.2 78.6 78.6 0 0 0 12.9-16zm-58.9-26.1a89.2 89.2 0 0 1-1.6 21.2 83 83 0 0 1-2.8 10.6 77.8 77.8 0 0 1-4.5 10.4 80.5 80.5 0 0 1-6.6 10.3 22.6 22.6 0 0 1-10.8 7.4 24.5 24.5 0 0 1-13.4.5 19.9 19.9 0 0 1-10.8-6.7l.5-1.8c3.9-2 6.9-3.4 9.4-4.9s4.5-3.1 6.3-4.5a48.1 48.1 0 0 1 6-4 26.9 26.9 0 0 0 6.8-5.1 69.5 69.5 0 0 0 5.7-7.2c1.8-2.6 3.6-5.4 5.2-8.2a154 154 0 0 0 8.7-18.3zm255.4 207.2a50 50 0 0 1-11.3 5.7 105.2 105.2 0 0 1-12.2 3.4c-2 .4-4.1.9-6.2 1.2l-6.3.8c-4.1.3-8.4.7-12.6.7l-12.7.4a39.5 39.5 0 0 1-12.3-1.9 64.2 64.2 0 0 1-11.6-5.4 46.3 46.3 0 0 1-10.3-8.7l.5-1.8a49.1 49.1 0 0 1 13-2.6 60.6 60.6 0 0 1 12-.3 38 38 0 0 1 5.8.6 57.3 57.3 0 0 1 5.6 1.4 111.1 111.1 0 0 0 11.3 3.1c3.8.8 7.6 1.3 11.5 1.8l5.7.7c2 .3 3.9.3 5.8.5l5.9.3h5.9l2.9-.2 2.9-.3a35.1 35.1 0 0 0 5.8-1zM750.1 814a45.6 45.6 0 0 1-10.1 8.5 76.2 76.2 0 0 1-11.7 6.1l-6.3 2.3c-2.1.7-4.2 1.1-6.4 1.8s-4.4.8-6.5 1.2l-3.4.6-3.3.3-6.6.8-6.7.5h-3.4l-3.3-.4a46.7 46.7 0 0 1-6.5-1.3 67 67 0 0 1-12.2-5.5 47.9 47.9 0 0 1-10.7-9l.6-1.8a56.3 56.3 0 0 1 13.3-2.3 101.3 101.3 0 0 1 12.2-.3 56.3 56.3 0 0 1 5.9.5l2.9.6 2.8.5 5.8 1.5 5.8.8a25.8 25.8 0 0 0 2.9.3h2.9a38.8 38.8 0 0 0 5.9.1 58.6 58.6 0 0 0 5.9-.1l5.9-.5a67.5 67.5 0 0 0 11.7-2.4 45.7 45.7 0 0 0 11.3-4.4zm-54.5-55.8a66.8 66.8 0 0 1-17.2 20.7 69 69 0 0 1-24.8 13 106.1 106.1 0 0 1-14 3.5 34.8 34.8 0 0 1-7.2.4 41.9 41.9 0 0 1-7.1-1 47.7 47.7 0 0 1-13.2-5.4 61.3 61.3 0 0 1-5.8-4.2 38.2 38.2 0 0 1-5.1-5.5l.7-1.7a37.2 37.2 0 0 1 7.1-1.1c2.3-.4 4.4-.4 6.5-.6 4.3-.3 8.3-.4 12.1-.5a72 72 0 0 1 11.4.6 44.4 44.4 0 0 0 11.5.5 56.7 56.7 0 0 0 11.5-2.1 69.2 69.2 0 0 0 11.3-4 75.3 75.3 0 0 0 20.7-13.7z"/><path d="M604.2 819.5a107.1 107.1 0 1 1-214.2 0c0-59.1 55.9-129.1 107.1-99.4 72.7 42.1 107.1 40.3 107.1 99.4z"/><path fill="#fff" d="M432.5 865.3s-36.8-68.7 14.9-110.8l25.7 10.4s-41.5 45.6-40.6 100.4z"/></svg>