<svg xmlns="http://www.w3.org/2000/svg" width="1080" height="1080" viewBox="0 0 1080 1080"><path d="M61.8 562.4a86 86 0 0 0 15.7 13.9 65.4 65.4 0 0 0 18.4 9 41.7 41.7 0 0 0 19.2 1.1 36.6 36.6 0 0 0 9.1-2.7l4.3-2 2.2-1.2 2.4-1.4a118.9 118.9 0 0 1 42.9-13.9 125.4 125.4 0 0 1 22.9-.8 143.2 143.2 0 0 1 22.6 3.3 161.7 161.7 0 0 1 42.4 15.9 188.2 188.2 0 0 1 36.1 26.2 247 247 0 0 1 29.8 32.5c4.5 5.8 8.7 11.8 12.6 17.9a169.7 169.7 0 0 1 10.5 19.2l-1.6 1.1c-20.5-20.2-41.3-39.3-63.4-56a377.4 377.4 0 0 0-34.2-22.9c-11.7-6.9-23.8-13-36.6-17a108.6 108.6 0 0 0-39.6-4.7 111.6 111.6 0 0 0-38.9 10.2l-2.4 1.1-1.3.6-1.3.6-5.6 2a52.2 52.2 0 0 1-11.8 2.1 50.7 50.7 0 0 1-22.9-4 68.7 68.7 0 0 1-18.8-12.3 63.8 63.8 0 0 1-7.7-7.9 79.6 79.6 0 0 1-6.6-8.7z"/><path d="M328.5 679.5c-.1-.9 0 1.2.1 1h-3.5l-3.6.2-7.1.2c-4.8.1-9.6.2-14.4.1-9.5 0-19.1-.4-28.6-1s-19.1-1.7-28.6-3.1-19-3.2-28.4-5.5a249 249 0 0 1-27.9-8.5 111.2 111.2 0 0 1-26-14.1 80 80 0 0 1-20.5-21.5 57.9 57.9 0 0 1-9-27.9l1-.2a74.2 74.2 0 0 0 13.7 23.9 91 91 0 0 0 20.5 17.7 193.1 193.1 0 0 0 24.1 13.1 172.1 172.1 0 0 0 26.2 9.9c9 2.7 18.1 4.9 27.4 6.8s18.6 3.4 28 4.6 18.8 2.3 28.3 3l14.2.8 7.1.3h7c.2-.3.2 1.9.1 1h-.1zM106 552.5a52.1 52.1 0 0 0 11.2 10.8 42.1 42.1 0 0 0 6.4 3.9 36.1 36.1 0 0 0 6.8 2.8 29.5 29.5 0 0 0 7.1 1.3c2.4.2 4.7.4 7.1.8l3.6.5 1.8.3 1.9.3 3.9.7a35.8 35.8 0 0 1 4.3.8l.2 1-1.7 1.4a7.6 7.6 0 0 1-1.9 1.2 23.3 23.3 0 0 1-3.9 1.9 33.8 33.8 0 0 1-4.2 1.3l-2.2.4-2.2.2a24 24 0 0 1-8.8-1.2 58.2 58.2 0 0 1-8.1-3.5 49.9 49.9 0 0 1-7.3-4.6 56.7 56.7 0 0 1-6.2-5.8 47.6 47.6 0 0 1-8.7-14z"/><path d="M83.9 561.3a54.1 54.1 0 0 0 12.4 10.6 53.4 53.4 0 0 0 7.1 3.7 50 50 0 0 0 7.4 2.6 33.1 33.1 0 0 0 7.7.9h1.9l1.9.2 1.9.2 1.9.2 7.9 1 4.1.6 4.5.9.2 1a13.3 13.3 0 0 1-1.9 1.4l-1.9 1.2a31.7 31.7 0 0 1-4.2 1.9 35.2 35.2 0 0 1-4.3 1.3l-2.3.4-2.3.3a23.6 23.6 0 0 1-4.6 0 35.8 35.8 0 0 1-4.5-.9 63.2 63.2 0 0 1-8.6-3.2 47.3 47.3 0 0 1-8-4.3 46.5 46.5 0 0 1-7-5.6 45.1 45.1 0 0 1-10.1-14.1zm42.3-17a55.5 55.5 0 0 0 10.5 11.1 40.5 40.5 0 0 0 6 4.2 35.6 35.6 0 0 0 6.5 3.2 26.9 26.9 0 0 0 6.8 1.6 49.2 49.2 0 0 1 6.7 1l1.8.3.8.2h.9l1.8.3 1.8.3 3.9.6a38.5 38.5 0 0 1 4.1.9l.3.9-1.7 1.5-1.8 1.2a34.9 34.9 0 0 1-3.9 1.9l-2.1.7-2.1.5a31.1 31.1 0 0 1-4.4.6 22.9 22.9 0 0 1-8.6-1.5 64.5 64.5 0 0 1-7.9-3.9 56.7 56.7 0 0 1-6.8-5 54.3 54.3 0 0 1-5.7-6.1 48.2 48.2 0 0 1-7.8-14.2z"/><path d="M143.9 537.7a88.8 88.8 0 0 0 10.4 14.5 50.2 50.2 0 0 0 6.1 6.1 45.6 45.6 0 0 0 6.7 5.1 28.1 28.1 0 0 0 7.4 3.2l7.5 2.1c5 1.4 10.3 1.8 16.9 2.5l.3 1a21.5 21.5 0 0 1-8.5 5l-1.3.4-1.2.3-2.5.5-2.6.2a22.8 22.8 0 0 1-12.5-2.9 54.8 54.8 0 0 1-8.2-5.8 56 56 0 0 1-6.8-7 67.8 67.8 0 0 1-5.4-7.8 72.4 72.4 0 0 1-7.2-17zm58.1 3.4a97.1 97.1 0 0 0 3.3 13.4 58.5 58.5 0 0 0 2.3 6.3 50.7 50.7 0 0 0 2.9 5.7 20.8 20.8 0 0 0 3.9 4.4l3.9 3a19.8 19.8 0 0 0 4.6 2.6c1.8.8 4 1.2 6.6 2.1l.3.9-1.5 1.4-.8.6-.9.5a13.9 13.9 0 0 1-3.9 1.5 15.2 15.2 0 0 1-8.9-.6 14.7 14.7 0 0 1-6.9-5.6 41.1 41.1 0 0 1-3.6-7.3 42 42 0 0 1-2-7.3 46.9 46.9 0 0 1-.9-7.3 62.1 62.1 0 0 1 .6-14.3z"/><path d="M218.4 546.2c.4 3.1.8 6.2 1.3 9.3.3 1.5.5 3 .8 4.4s.6 3 1 4.3a16.8 16.8 0 0 0 1.6 3.9 12.8 12.8 0 0 1 1.1 3.3 26 26 0 0 1 .3 2.6 2.4 2.4 0 0 0 .2.8l.5.7.8.9 1.1.8.2 1a4.3 4.3 0 0 1-1.2 1.1l-1.5.8-1.8.3a12.5 12.5 0 0 1-1.9-.3 9.4 9.4 0 0 1-3.3-1.7 13.1 13.1 0 0 1-2.3-2.5 10.2 10.2 0 0 1-1.9-5.6c-.1-1.8.1-3.6.1-5.2s.2-3.4.4-5 .5-3.2.8-4.8 1.6-6.2 2.7-9.2z"/><path d="M186.2 539.5a111 111 0 0 0 4.6 13 65.4 65.4 0 0 0 3 5.9 29.1 29.1 0 0 0 3.4 5.4 17.5 17.5 0 0 0 4.3 3.9l4.1 2.5a16.6 16.6 0 0 0 4.8 1.9 63.9 63.9 0 0 0 6.8 1.3l.4.9-1.3 1.5-.8.8-.8.6-1.7 1.1-1.9.9a15.7 15.7 0 0 1-8.9.4 14 14 0 0 1-7.5-4.7 34.2 34.2 0 0 1-4.3-6.9 40.9 40.9 0 0 1-2.8-7 62 62 0 0 1-1.6-7.2 67.3 67.3 0 0 1-.7-14.2z"/><path d="M170.3 538a88.6 88.6 0 0 0 4.7 13.4 58.6 58.6 0 0 0 3.2 6.1 33.9 33.9 0 0 0 3.8 5.3 13.5 13.5 0 0 0 4.7 3.6l4.6 2.3a24 24 0 0 0 5.5 1.6c2.1.5 4.4.6 7.2 1.1l.4 1a16.4 16.4 0 0 1-6.7 4.9 16.2 16.2 0 0 1-8.8 1.1 15.9 15.9 0 0 1-8.3-4.1 32.4 32.4 0 0 1-5.2-6.8 57.6 57.6 0 0 1-3.3-7.2 73.3 73.3 0 0 1-1.9-7.4 67.3 67.3 0 0 1-.9-14.8zm122 36.8a22.8 22.8 0 0 1-5.5 9 17 17 0 0 1-1.9 1.9l-1 .9-1.1.9a35.8 35.8 0 0 1-4.6 2.9c-1.7.8-3.3 1.9-5 2.6a11.4 11.4 0 0 1-2.6.9l-2.8.2a12.4 12.4 0 0 1-2.7-.3 21.4 21.4 0 0 1-2.7-.6 15.6 15.6 0 0 1-5.2-3.1v-1a19.8 19.8 0 0 1 4.8-3 15.1 15.1 0 0 1 2.2-1.1l2.1-.8a17 17 0 0 1 4.4-.8h2.3l2.3-.3a29.2 29.2 0 0 0 4.2-1.3l1.1-.4 1.1-.4 2.1-1a31.5 31.5 0 0 0 7.7-5.6zM268 563.2a26.7 26.7 0 0 1-2.7 9 15.5 15.5 0 0 1-1.2 2.2 25.7 25.7 0 0 1-4.9 5.7l-2 1.7-2.2 1.6-2.4 1.1a3.1 3.1 0 0 1-1.3.3H250a11.8 11.8 0 0 1-9.8-4v-1a29.1 29.1 0 0 1 4.2-2.9c1.2-.8 2.4-1.2 3.4-1.9l.8-.3c.3-.1.6-.1.8-.3l1.7-.3a11.3 11.3 0 0 0 1.8-.3l.9-.2.9-.3a26.8 26.8 0 0 0 3.3-1.8l1.7-1.1 1.5-1.3a31.5 31.5 0 0 0 5.7-6.3zm-24.4-10.8a33.2 33.2 0 0 1-.3 8.9 28.4 28.4 0 0 1-2.8 9 31.5 31.5 0 0 1-2.7 4.5 9.4 9.4 0 0 1-4.7 3.3 9.9 9.9 0 0 1-5.9 0 8.3 8.3 0 0 1-4.6-3.4l.3-1 3.8-2.6 2.2-2.1a9.4 9.4 0 0 1 2.2-1.5 7.1 7.1 0 0 0 2.8-1.8 32.8 32.8 0 0 0 4.7-6.1 74.5 74.5 0 0 0 4.1-7.4zm105.6 85.8a17.2 17.2 0 0 1-4.6 2.5 50.8 50.8 0 0 1-5.1 1.7l-5.2 1-5.3.4-5.3.4a18.2 18.2 0 0 1-5.2-.8 24.2 24.2 0 0 1-4.7-2.6 18.6 18.6 0 0 1-4.2-4.2l.3-.9a19.5 19.5 0 0 1 5.5-1.8 28.9 28.9 0 0 1 5-.4 12.7 12.7 0 0 1 4.7.9 35 35 0 0 0 4.6 1.4 37.3 37.3 0 0 0 4.6.9l4.8.7 2.4.2h4.9l2.3-.3zm-17.4-23.7a24.1 24.1 0 0 1-4.1 3.7 28.2 28.2 0 0 1-4.8 2.7l-2.6 1c-.9.4-1.8.6-2.7.9a28 28 0 0 1-2.8.6l-1.4.2-1.4.2-2.8.4-2.8.3h-2.8a13.1 13.1 0 0 1-2.7-.6 20.5 20.5 0 0 1-5.1-2.6 17.7 17.7 0 0 1-4.2-4.4l.3-.9a18.8 18.8 0 0 1 5.6-1.5 23.2 23.2 0 0 1 5.1-.5 9.7 9.7 0 0 1 2.4.2l1.1.2 1.2.3 2.3.7 2.4.4 1.1.2h8.5a26.7 26.7 0 0 0 4.8-.8 20.1 20.1 0 0 0 4.7-1.6zm-22.5-23.2a27.4 27.4 0 0 1-6.9 9 35.4 35.4 0 0 1-4.9 3.4l-2.7 1.3-2.8 1-1.4.5-1.5.4-1.5.5-1.5.3a16.2 16.2 0 0 1-3.1.2 15.7 15.7 0 0 1-3-.5l-1.5-.4-1.4-.6-2.6-1.5a16.1 16.1 0 0 1-4.4-4.6l.4-.9a23.6 23.6 0 0 1 5.8-1.3l2.5-.4h2.4a8.8 8.8 0 0 1 2.3 0l2.3.3 1.1.2h1.2a8.7 8.7 0 0 0 2.3.1l2.3-.2 2.4-.5a26.9 26.9 0 0 0 4.6-1.4 36.2 36.2 0 0 0 8.8-5.3z"/><path d="M271.4 616.7a44.3 44.3 0 0 1-88.6 0c0-24.5 23.1-53.4 44.3-41.2 30.1 17.4 44.3 16.7 44.3 41.2z"/><path fill="#fff" d="M200.4 635.6s-15.2-28.4 6.1-45.8l10.7 4.2s-17.2 18.9-16.8 41.6z"/><path d="M124.2 492.5v-2.6h14v-147h-21.1c-6.3 0-8.9 2.1-11 5.6l-19.2 30h-2.6l4.1-38.2h125.5l4.1 38.2h-2.6l-19.2-30c-2.2-3.5-4.7-5.6-11-5.6h-21.1v147h14v2.6z"/><path d="M281.8 486.9c-2.6 4.1-7.8 8.2-17.7 8.2s-16.4-4.6-17.5-12.3h-.4c-5.6 8.8-13.6 12.3-25.4 12.3-17.7 0-28-9.5-28-23.1s9-19.2 19.6-23.3a295.8 295.8 0 0 1 33.6-9.9v-19.6c0-15.5-7.1-18.1-15.7-18.1-6.3 0-8.7 2.1-11 5.6l-17.9 25.9H199l3-28.1c8.4-2.8 20.3-5.4 29.3-5.4 16.2 0 36.9 7.2 36.9 30.9v54.9c0 3.5.9 6.3 4.3 6.3s5.8-2.2 7.8-5.4zM246 441c-15.7 3.2-28 8.2-28.9 24.8a133 133 0 0 0 .2 15.5c.5 4.9 2.2 10.1 10.8 10.1s17.9-9 17.9-15.3zm57.3 112.9v-2.1h17.3v-54.1l-40.1-93.8h-7.1v-2.2h45.7v2.2h-14.9l26.7 67.9h.5l27.3-67.9H340v-2.2h28.7v2.2h-7.4l-37.9 93.8v54.1h15.1v2.1z"/><path d="M366.9 492.5v-2.2h12.8V342.4h-12.8v-2.1h35v150h12.7v2.2zm49.2-45.1c0-26.5 17-48.3 47.2-48.3s47.4 21.8 47.4 47.7-17 48.3-47.2 48.3-47.4-21.8-47.4-47.7zm67.9 19a230.9 230.9 0 0 0 0-39c-1.1-12.1-3.9-26.1-20.7-26.1s-19.2 14-20.3 26.5a195.5 195.5 0 0 0 0 39c1.1 12.1 3.7 26.1 20.5 26.1s19.4-14 20.5-26.5zm28.2 26.1v-2.2H525v-86.4h-12.8v-2.2h34.5v18.8h.5c4.1-12.1 12.9-21.4 24.8-21.4a27.6 27.6 0 0 1 12.9 3.5l2.6 31.7-2.6.2-16.2-26.5c-1.5-2.6-2.8-3.7-4.3-3.7-7.1 0-17.2 15.3-17.2 27.8v58.2h17v2.2zm-38.8 127.3h-18.3v-2.6h56.1v2.6h-11.9v56.7c-12.9 2.6-32.8 5.8-46.8 5.8-50.9 0-66.6-41.8-66.6-77.8 0-44 20.1-79.6 63.4-79.6 13.6 0 27.8 3.3 38.1 6.7l3.9 37.3h-2.6l-22.2-34.5c-3.6-5.6-6-7.1-17-7.1-28.2 0-30.8 22-32.5 45.3a415.4 415.4 0 0 0 0 63.1c1.9 26.5 7.9 44.2 35.5 44.2a117.4 117.4 0 0 0 20.9-1.9zm129.8 54.3c-2.6 4.1-7.7 8.2-17.7 8.2s-16.3-4.5-17.4-12.3h-.5c-5.6 8.8-13.5 12.3-25.4 12.3-17.7 0-28-9.5-28-23.1s9-19.2 19.6-23.3a295.8 295.8 0 0 1 33.6-9.9v-19.6c0-15.5-7.1-18.1-15.7-18.1-6.3 0-8.6 2.2-11 5.6l-17.9 25.9h-2.4l3-28.1c8.5-2.8 20.3-5.3 29.4-5.3 16.1 0 36.8 7.1 36.8 30.8v55c0 3.4.9 6.2 4.3 6.2s5.9-2.1 7.8-5.4zm-35.8-45.9c-15.7 3.2-28 8.2-28.9 24.8a114 114 0 0 0 .3 15.5c.4 5 2.1 10.1 10.7 10.1s17.9-9 17.9-15.3zm39.5 51.5v-2.2h12.7v-86.4h-12.7v-2.2h34.5v18.8h.4c4.1-12.1 12.9-21.3 24.8-21.3a27.1 27.1 0 0 1 12.9 3.4l2.6 31.7-2.6.2-16.1-26.5c-1.6-2.6-2.8-3.7-4.4-3.7-7.1 0-17.2 15.3-17.2 27.8v58.2h17v2.2zm80.2 0v-2.2h12.7v-86.4h-12.7v-2.2H722v88.6h12.7v2.2zm23.7-126.1c-7.3 0-13.2-5.4-13.2-12.9a13.1 13.1 0 0 1 13.2-13.2 12.9 12.9 0 0 1 12.9 13.2 12.6 12.6 0 0 1-12.9 12.9zm110.1 110.2c-5.6 12.2-17.6 18.5-33.8 18.5-32.6 0-48.7-18.3-48.7-47.7 0-24.7 13.3-48.2 43.5-48.2 19.2 0 39.7 7.3 39.7 43.5h-57.1c0 5.4 0 16.2.6 24.1 1.3 12.3 6.3 25.5 23.3 25.5 14.9 0 25.4-6.3 30-17zm-22.8-36.5c0-7.1-.4-16.6-1.5-22.8-1.7-9.5-6.1-16-14.9-16-12.9 0-15.1 12.1-16.4 24.4-.4 3.4-.8 11-.8 14.4zm29.3 113.8V739h12.7V591.1h-12.7v-2.2h34.5v9.7h.4c3.9-6.4 11.2-12.2 23.3-12.2 22.2 0 42.3 16.6 42.3 47.8s-20.1 48.1-42.3 48.1c-12.3 0-19.4-6-23.1-12.1h-.2V739h17.1v2.1zm34.9-79.5c0 5.4 6.5 17.7 19.7 17.7s17.8-9.7 19.4-27.4a256.7 256.7 0 0 0 0-35.1c-1.6-17.7-5-27.4-19.4-27.4-11.7 0-19.7 10.1-19.7 16.4zm92.3 79.5V739h17.2v-54.1l-40-93.8h-7.2v-2.2h45.7v2.2h-14.8l26.7 67.9h.4l27.4-67.9h-18.8v-2.2h28.7v2.2h-7.3l-38 93.8V739h15.1v2.1z"/></svg>